PathFileType	4	(X/Y/Z)
DataRate	CameraRate	NumFrames	NumMarkers	Units	OrigDataRate	OrigDataStartFrame	OrigNumFrames	
	120.0	120.0	9	39	mm	120.0	58	231
Frame#	Time	midhip	hip_r	hip_l	knee_r	knee_l	ankle_r	ankle_l	midasis	asis_r	asis_l	psis_r	psis_l	epicondLat_r	epicondLat_l	epicondMed_r	epicondMed_l	malleolusLat_r	malleolusLat_l	malleolusMedv_r	malleolusMedv_l	heel_r	heel_l	sternalnotch	xyphoidprocess	neck	subclavicle_r	subclavicle_l	toe_r	toe_l	thighwand_r	thighwand_l	upperleg1_r	upperleg1_l	upperleg2_r	upperleg2_l	shankwand_r	shankwand_l	lowerleg1_r	lowerleg1_l
	X1	Y1	Z1	X2	Y2	Z2	X3	Y3	Z3	X4	Y4	Z4	X5	Y5	Z5	X6	Y6	Z6	X7	Y7	Z7	X8	Y8	Z8	X9	Y9	Z9	X10	Y10	Z10	X11	Y11	Z11	X12	Y12	Z12	X13	Y13	Z13	X14	Y14	Z14	X15	Y15	Z15	X16	Y16	Z16	X17	Y17	Z17	X18	Y18	Z18	X19	Y19	Z19	X20	Y20	Z20	X21	Y21	Z21	X22	Y22	Z22	X23	Y23	Z23	X24	Y24	Z24	X25	Y25	Z25	X26	Y26	Z26	X27	Y27	Z27	X28	Y28	Z28	X29	Y29	Z29	X30	Y30	Z30	X31	Y31	Z31	X32	Y32	Z32	X33	Y33	Z33	X34	Y34	Z34	X35	Y35	Z35	X36	Y36	Z36	X37	Y37	Z37	X38	Y38	Z38	X39	Y39	Z39

	58	0.48333	1361.032	701.184	-227.754	1358.600	703.607	-164.933	1363.464	698.761	-290.575	1339.896	374.068	-139.429	1341.202	378.028	-308.412	1355.509	57.422	-109.609	1336.481	59.168	-343.649	1436.567	752.595	-226.813	1432.952	756.197	-133.422	1440.182	748.993	-320.204	1300.268	816.199	-214.001	1298.290	809.418	-269.125	1337.905	378.074	-89.128	1341.051	380.815	-358.334	1337.792	375.435	-189.621	1342.790	366.257	-255.024	1345.501	59.930	-77.738	1330.480	62.988	-377.408	1351.863	65.104	-137.312	1332.775	60.157	-313.855	1299.708	38.995	-112.591	1283.323	40.780	-338.606	1398.410	1115.255	-243.904	1452.129	981.370	-239.955	1322.457	1149.526	-244.903	1397.333	1127.782	-183.673	1403.368	1127.377	-298.861	1451.446	39.974	-99.226	1432.161	38.559	-357.448	1341.307	485.041	-21.110	1477.353	475.777	-334.867	1381.250	538.109	-91.701	1413.235	529.933	-274.109	1386.198	453.575	-98.953	1396.640	443.787	-275.031	1317.082	168.042	-15.200	1420.705	163.181	-371.838	1329.559	219.211	-79.085	1360.381	216.370	-344.131
	59	0.49167	1360.979	701.186	-227.748	1358.550	703.613	-164.927	1363.407	698.759	-290.569	1339.876	374.067	-139.427	1341.180	378.035	-308.405	1355.516	57.430	-109.606	1336.486	59.177	-343.661	1436.521	752.586	-226.814	1432.911	756.195	-133.421	1440.131	748.978	-320.207	1300.229	816.211	-213.986	1298.240	809.432	-269.113	1337.884	378.072	-89.125	1341.029	380.822	-358.327	1337.734	375.417	-189.598	1342.748	366.237	-255.048	1345.508	59.938	-77.734	1330.484	62.998	-377.420	1351.796	65.114	-137.343	1332.734	60.147	-313.853	1299.699	39.006	-112.596	1283.332	40.784	-338.602	1398.439	1115.251	-243.873	1452.112	981.347	-239.927	1322.317	1149.600	-244.834	1397.392	1127.787	-183.639	1403.378	1127.363	-298.838	1451.445	39.972	-99.234	1432.165	38.562	-357.457	1341.291	485.038	-21.106	1477.305	475.797	-334.865	1381.208	538.096	-91.693	1413.182	529.932	-274.083	1386.158	453.563	-98.943	1396.590	443.770	-275.032	1317.065	168.045	-15.196	1420.704	163.201	-371.842	1329.489	219.188	-79.055	1360.360	216.362	-344.126
	60	0.50000	1360.930	701.192	-227.734	1358.506	703.624	-164.913	1363.355	698.761	-290.555	1339.849	374.081	-139.419	1341.152	378.056	-308.399	1355.498	57.453	-109.594	1336.480	59.215	-343.684	1436.473	752.593	-226.808	1432.868	756.207	-133.409	1440.078	748.978	-320.206	1300.120	816.231	-213.988	1298.196	809.448	-269.103	1337.859	378.085	-89.118	1340.999	380.844	-358.321	1337.641	375.427	-189.561	1342.696	366.257	-255.074	1345.490	59.960	-77.723	1330.477	63.039	-377.442	1351.844	65.128	-137.309	1332.726	60.195	-313.864	1299.715	39.018	-112.588	1283.337	40.801	-338.601	1398.437	1115.285	-243.848	1452.129	981.390	-239.850	1322.470	1149.578	-244.835	1397.386	1127.843	-183.633	1403.377	1127.378	-298.802	1451.432	39.979	-99.227	1432.160	38.578	-357.463	1341.275	485.047	-21.101	1477.260	475.825	-334.854	1381.196	538.109	-91.709	1413.116	529.969	-274.076	1386.112	453.587	-98.937	1396.532	443.792	-275.037	1317.060	168.066	-15.193	1420.699	163.231	-371.848	1329.470	219.222	-79.036	1360.338	216.394	-344.136
	61	0.50833	1360.894	701.189	-227.713	1358.474	703.623	-164.893	1363.315	698.756	-290.534	1339.818	374.106	-139.409	1341.118	378.083	-308.395	1355.449	57.481	-109.579	1336.462	59.272	-343.713	1436.423	752.609	-226.795	1432.824	756.227	-133.389	1440.022	748.991	-320.201	1299.831	816.263	-214.040	1298.154	809.461	-269.093	1337.831	378.109	-89.107	1340.963	380.874	-358.317	1337.511	375.491	-189.524	1342.642	366.311	-255.083	1345.444	59.990	-77.706	1330.458	63.099	-377.470	1351.883	65.179	-137.273	1332.716	60.273	-313.883	1299.754	39.024	-112.567	1283.337	40.823	-338.606	1398.428	1115.342	-243.846	1452.139	981.455	-239.813	1322.625	1149.575	-244.830	1397.334	1127.898	-183.636	1403.405	1127.436	-298.792	1451.415	39.993	-99.211	1432.150	38.605	-357.467	1341.258	485.064	-21.093	1477.221	475.854	-334.833	1381.161	538.173	-91.704	1413.060	530.035	-274.085	1386.044	453.635	-98.926	1396.478	443.836	-275.040	1317.066	168.094	-15.191	1420.689	163.265	-371.855	1329.455	219.298	-79.030	1360.311	216.462	-344.158
	62	0.51667	1360.871	701.171	-227.692	1358.455	703.605	-164.871	1363.286	698.737	-290.513	1339.783	374.134	-139.398	1341.081	378.109	-308.392	1355.368	57.505	-109.565	1336.437	59.330	-343.740	1436.373	752.631	-226.783	1432.780	756.250	-133.368	1439.965	749.011	-320.197	1299.358	816.302	-214.142	1298.114	809.468	-269.081	1337.801	378.135	-89.095	1340.923	380.903	-358.313	1337.286	375.604	-189.473	1342.619	366.372	-255.066	1345.366	60.016	-77.692	1330.431	63.160	-377.497	1351.859	65.256	-137.250	1332.677	60.340	-313.889	1299.815	39.014	-112.529	1283.331	40.844	-338.614	1398.447	1115.423	-243.821	1452.166	981.540	-239.774	1322.510	1149.688	-244.759	1397.352	1127.986	-183.596	1403.422	1127.511	-298.785	1451.401	40.012	-99.191	1432.136	38.633	-357.467	1341.240	485.083	-21.084	1477.185	475.879	-334.809	1381.095	538.275	-91.653	1413.019	530.112	-274.066	1385.926	453.675	-98.897	1396.445	443.895	-275.020	1317.075	168.124	-15.188	1420.671	163.296	-371.862	1329.417	219.377	-78.992	1360.277	216.522	-344.156
	63	0.52500	1360.856	701.139	-227.673	1358.445	703.573	-164.852	1363.267	698.706	-290.494	1339.747	374.156	-139.385	1341.043	378.127	-308.386	1355.254	57.524	-109.564	1336.411	59.371	-343.752	1436.322	752.652	-226.772	1432.737	756.271	-133.349	1439.908	749.033	-320.196	1298.772	816.340	-214.273	1298.073	809.470	-269.065	1337.772	378.157	-89.082	1340.882	380.925	-358.307	1337.078	375.669	-189.402	1342.585	366.422	-255.024	1345.255	60.036	-77.690	1330.402	63.203	-377.508	1351.841	65.293	-137.235	1332.632	60.375	-313.886	1299.873	38.989	-112.487	1283.322	40.859	-338.621	1398.480	1115.501	-243.758	1452.256	981.641	-239.717	1322.254	1149.812	-244.665	1397.430	1128.081	-183.524	1403.405	1127.575	-298.743	1451.389	40.036	-99.172	1432.120	38.658	-357.465	1341.221	485.099	-21.072	1477.150	475.898	-334.787	1381.042	538.337	-91.622	1412.954	530.171	-274.022	1385.819	453.704	-98.862	1396.399	443.960	-274.977	1317.071	168.152	-15.182	1420.648	163.321	-371.864	1329.386	219.412	-78.943	1360.240	216.559	-344.131
	64	0.53333	1360.847	701.099	-227.652	1358.440	703.531	-164.831	1363.254	698.666	-290.473	1339.714	374.168	-139.367	1341.006	378.135	-308.374	1355.148	57.540	-109.571	1336.390	59.384	-343.741	1436.274	752.668	-226.759	1432.694	756.286	-133.328	1439.854	749.050	-320.189	1298.148	816.372	-214.412	1298.030	809.466	-269.046	1337.746	378.169	-89.064	1340.840	380.934	-358.295	1337.153	375.652	-189.386	1342.539	366.443	-255.044	1345.155	60.053	-77.695	1330.378	63.216	-377.496	1351.830	65.289	-137.244	1332.600	60.378	-313.887	1299.894	38.967	-112.465	1283.314	40.864	-338.622	1398.526	1115.537	-243.724	1452.400	981.715	-239.713	1322.249	1149.801	-244.635	1397.500	1128.116	-183.484	1403.412	1127.614	-298.715	1451.376	40.058	-99.157	1432.108	38.673	-357.457	1341.202	485.108	-21.057	1477.118	475.908	-334.766	1380.991	538.330	-91.620	1412.891	530.204	-273.984	1385.829	453.763	-98.848	1396.347	443.995	-274.965	1317.056	168.167	-15.174	1420.622	163.336	-371.854	1329.369	219.398	-78.924	1360.197	216.582	-344.116
	65	0.54167	1360.838	701.054	-227.628	1358.434	703.486	-164.807	1363.243	698.622	-290.449	1339.685	374.170	-139.347	1340.972	378.131	-308.355	1355.086	57.547	-109.577	1336.377	59.370	-343.713	1436.229	752.676	-226.741	1432.653	756.293	-133.307	1439.806	749.059	-320.175	1297.559	816.398	-214.540	1297.986	809.460	-269.028	1337.726	378.170	-89.044	1340.801	380.932	-358.276	1337.304	375.630	-189.407	1342.526	366.450	-255.089	1345.097	60.059	-77.700	1330.361	63.201	-377.468	1351.836	65.271	-137.256	1332.596	60.357	-313.880	1299.887	38.953	-112.464	1283.309	40.858	-338.618	1398.554	1115.531	-243.745	1452.467	981.725	-239.742	1322.528	1149.698	-244.666	1397.502	1128.097	-183.503	1403.456	1127.622	-298.731	1451.367	40.076	-99.146	1432.101	38.676	-357.449	1341.185	485.109	-21.040	1477.090	475.909	-334.746	1380.971	538.294	-91.617	1412.879	530.225	-273.992	1385.879	453.820	-98.843	1396.334	443.996	-274.988	1317.033	168.168	-15.163	1420.600	163.339	-371.832	1329.346	219.372	-78.927	1360.159	216.580	-344.119
	66	0.55000	1360.824	701.013	-227.608	1358.422	703.445	-164.786	1363.227	698.581	-290.429	1339.665	374.165	-139.332	1340.941	378.120	-308.335	1355.070	57.541	-109.580	1336.373	59.343	-343.680	1436.188	752.675	-226.725	1432.615	756.292	-133.289	1439.762	749.058	-320.161	1297.074	816.416	-214.637	1297.942	809.455	-269.012	1337.710	378.165	-89.029	1340.765	380.922	-358.256	1337.363	375.633	-189.406	1342.552	366.438	-255.069	1345.084	60.051	-77.702	1330.354	63.171	-377.434	1351.843	65.260	-137.242	1332.602	60.335	-313.858	1299.872	38.945	-112.471	1283.304	40.848	-338.612	1398.541	1115.524	-243.742	1452.401	981.696	-239.744	1322.551	1149.715	-244.625	1397.471	1128.079	-183.501	1403.470	1127.624	-298.721	1451.364	40.090	-99.144	1432.098	38.672	-357.443	1341.168	485.103	-21.023	1477.065	475.902	-334.733	1380.970	538.266	-91.585	1412.862	530.234	-274.001	1385.893	453.850	-98.814	1396.338	443.990	-274.982	1316.996	168.163	-15.149	1420.579	163.337	-371.803	1329.318	219.370	-78.928	1360.150	216.571	-344.116
